<svg width="363" height="72" viewBox="0 0 363 72" fill="none" xmlns="http://www.w3.org/2000/svg">
<g clip-path="url(#clip0_2_5)">
<path d="M67.9688 26.5312L96.25 5.8125C93.8958 7.625 91.6771 9.59375 89.5938 11.7188C88.3646 12.9271 87.3438 14.0104 86.5312 14.9688C85.7188 15.9271 84.9167 16.9688 84.125 18.0938C83.3333 19.1979 82.5833 20.375 81.875 21.625C81.1875 22.8542 80.6146 24.125 80.1562 25.4375L71.8125 59.1875H60.0938C58.9062 55.7708 57.8542 52.7188 56.9375 50.0312C56.375 48.4062 55.9271 47.125 55.5938 46.1875C55.2604 45.2292 54.9583 44.3542 54.6875 43.5625C54.4167 42.7708 54.1875 42.1146 54 41.5938C53.8125 41.0729 53.7188 40.8021 53.7188 40.7812C53.4479 39.9688 53.0312 39.5625 52.4688 39.5625C52.0729 39.5625 51.6146 39.7604 51.0938 40.1562C49.9896 40.9479 49.1771 41.6562 48.6562 42.2812C48.1562 42.8854 47.8021 43.4792 47.5938 44.0625L43.8438 59.1875H34.4688C32.2396 59.25 30.1146 59.5208 28.0938 60C26.0521 60.4792 24.2292 61 22.625 61.5625C21.0208 62.1458 19.6979 62.6979 18.6562 63.2188C17.5938 63.7396 16.9375 64.0729 16.6875 64.2188L61.2812 31.4688L64.4688 40.75L67.9688 26.5312ZM83 13.2812L62.8438 28.0938C63.5938 27.3646 64.375 26.4375 65.1875 25.3125C66.0208 24.1667 66.8125 22.9479 67.5625 21.6562C68.3125 20.3646 68.9896 19.0729 69.5938 17.7812C70.1979 16.4896 70.6667 15.3333 71 14.3125L71.25 13.2812H83ZM49.0312 38.25L34.4062 48.9688L43.25 13.2812H55.0312L60.6562 29.6875L52.0938 36L50.625 31.75L49.0312 38.25Z" fill="black"/>
<path d="M13.125 59L22.9062 12.9375H32.4688L22.6875 59H13.125ZM89.3125 21.0938L91.0625 12.9375H128.375L126.625 21.0938H112.844L104.812 59H95.125L103.156 21.0938H89.3125ZM161.188 50.7188L159.438 59H124.531L134.312 12.9375H168.094L166.344 21.0938H141.969L139.906 30.875H162.281L160.562 38.875H138.188L135.688 50.7188H161.188ZM194.875 56.5312C194.896 55.2396 195.042 53.9167 195.312 52.5625L196.156 48.2812C196.74 45.3438 196.615 43.3854 195.781 42.4062C194.969 41.4271 193.146 40.9375 190.312 40.9375H180.375L176.562 59H167.156L176.938 12.9375H199.531C202.74 13 205.135 13.3958 206.719 14.125C208.302 14.8542 209.552 15.9271 210.469 17.3438C211.219 18.5104 211.729 19.8021 212 21.2188C212.292 22.6354 212.25 24.25 211.875 26.0625C211.396 28.25 210.375 30.4062 208.812 32.5312C207.271 34.6354 205.135 36.125 202.406 37C204.344 37.8542 205.583 39.0729 206.125 40.6562C206.688 42.2188 206.625 44.6146 205.938 47.8438L205.281 50.9375C204.844 53.0417 204.625 54.4688 204.625 55.2188C204.625 56.4062 205.021 57.2812 205.812 57.8438L205.594 59H195C194.917 57.9792 194.875 57.1562 194.875 56.5312ZM195.812 20.9375H184.625L182 33.3125H192.906C195.073 33.3125 196.75 33.0625 197.938 32.5625C200.042 31.6875 201.375 29.9583 201.938 27.375C202.521 24.5833 201.99 22.7083 200.344 21.75C199.406 21.2083 197.896 20.9375 195.812 20.9375ZM247.031 12.9375L253.562 59H243.125L242.156 49.5312H225.188L220 59H209.938L236.156 12.9375H247.031ZM239.25 23.4688L229.469 41.5938H241.156L239.25 23.4688ZM287.062 59.25C284.854 59.9375 282.312 60.2812 279.438 60.2812C273.438 60.2812 268.854 58.4896 265.688 54.9062C261.854 50.5938 260.833 44.2604 262.625 35.9062C264.396 27.4896 268.177 21.125 273.969 16.8125C278.698 13.2917 284.021 11.5312 289.938 11.5312C295.896 11.5312 300.5 13.3958 303.75 17.125C307.5 21.4375 308.552 27.4688 306.906 35.2188C306.031 39.3229 304.802 42.7604 303.219 45.5312C301.844 48.1771 300.177 50.375 298.219 52.125L302.469 57.0938L296.344 62.3438L291.875 57.0938C289.979 58.1146 288.375 58.8333 287.062 59.25ZM283.062 46.5L289.125 41.3125L292.844 45.75C293.885 44.25 294.667 42.9375 295.188 41.8125C296.021 40.125 296.677 38.1562 297.156 35.9062C298.24 30.7396 298.021 26.75 296.5 23.9375C295 21.1042 292.219 19.6875 288.156 19.6875C284.344 19.6875 281.01 21.0417 278.156 23.75C275.323 26.4583 273.333 30.5104 272.188 35.9062C270.833 42.2188 271.49 46.7396 274.156 49.4688C275.885 51.2396 278.219 52.125 281.156 52.125C282.26 52.125 283.354 51.9896 284.438 51.7188C285.042 51.5729 285.812 51.3125 286.75 50.9375L283.062 46.5ZM313.438 21.0938L315.188 12.9375H352.5L350.75 21.0938H336.969L328.938 59H319.25L327.281 21.0938H313.438Z" fill="black"/>
</g>
<defs>
<clipPath id="clip0_2_5">
<rect width="363" height="72" fill="white"/>
</clipPath>
</defs>
</svg>
